<svg id="_x31__x2C_5" enable-background="new 0 0 24 24" height="24" viewBox="0 0 24 24" width="24" xmlns="http://www.w3.org/2000/svg"><g><path d="m5.25 6h-4.5c-.414 0-.75-.336-.75-.75v-4.5c0-.414.336-.75.75-.75h4.5c.414 0 .75.336.75.75v4.5c0 .414-.336.75-.75.75zm-3.75-1.5h3v-3h-3z"/></g><g><path d="m23.25 6h-4.5c-.414 0-.75-.336-.75-.75v-4.5c0-.414.336-.75.75-.75h4.5c.414 0 .75.336.75.75v4.5c0 .414-.336.75-.75.75zm-3.75-1.5h3v-3h-3z"/></g><g><path d="m5.25 24h-4.5c-.414 0-.75-.336-.75-.75v-4.5c0-.414.336-.75.75-.75h4.5c.414 0 .75.336.75.75v4.5c0 .414-.336.75-.75.75zm-3.75-1.5h3v-3h-3z"/></g><g><path d="m23.25 24h-4.5c-.414 0-.75-.336-.75-.75v-4.5c0-.414.336-.75.75-.75h4.5c.414 0 .75.336.75.75v4.5c0 .414-.336.75-.75.75zm-3.75-1.5h3v-3h-3z"/></g><g><path d="m21.25 19.5c-.414 0-.75-.336-.75-.75v-13.5c0-.414.336-.75.75-.75s.75.336.75.75v13.5c0 .414-.336.75-.75.75z"/></g><g><path d="m2.75 19.5c-.414 0-.75-.336-.75-.75v-13.5c0-.414.336-.75.75-.75s.75.336.75.75v13.5c0 .414-.336.75-.75.75z"/></g><g><path d="m18.75 22h-13.5c-.414 0-.75-.336-.75-.75s.336-.75.75-.75h13.5c.414 0 .75.336.75.75s-.336.75-.75.75z"/></g><g><path d="m18.75 3.5h-13.5c-.414 0-.75-.336-.75-.75s.336-.75.75-.75h13.5c.414 0 .75.336.75.75s-.336.75-.75.75z"/></g></svg>